<mxfile host="app.diagrams.net" modified="2022-02-04T15:04:56.099Z" agent="5.0 (Windows NT 10.0; Win64; x64) AppleWebKit/537.36 (KHTML, like Gecko) Chrome/97.0.4692.99 Safari/537.36" etag="dhrqM5ni_BtlLPXveOwz" version="15.7.0" type="github">
  <diagram id="C5RBs43oDa-KdzZeNtuy" name="Page-1">
    <mxGraphModel dx="716" dy="377" grid="1" gridSize="10" guides="1" tooltips="1" connect="1" arrows="1" fold="1" page="1" pageScale="1" pageWidth="827" pageHeight="1169" math="0" shadow="0">
      <root>
        <mxCell id="WIyWlLk6GJQsqaUBKTNV-0" />
        <mxCell id="WIyWlLk6GJQsqaUBKTNV-1" parent="WIyWlLk6GJQsqaUBKTNV-0" />
        <mxCell id="7U2r5Oz5NG4RY_fJrtAZ-0" value="Airline" style="swimlane;fontStyle=0;align=center;verticalAlign=top;childLayout=stackLayout;horizontal=1;startSize=26;horizontalStack=0;resizeParent=1;resizeParentMax=0;resizeLast=0;collapsible=1;marginBottom=0;" vertex="1" parent="WIyWlLk6GJQsqaUBKTNV-1">
          <mxGeometry x="290" y="90" width="160" height="112" as="geometry" />
        </mxCell>
        <mxCell id="7U2r5Oz5NG4RY_fJrtAZ-41" value="- ID : String" style="text;strokeColor=none;fillColor=none;align=left;verticalAlign=top;spacingLeft=4;spacingRight=4;overflow=hidden;rotatable=0;points=[[0,0.5],[1,0.5]];portConstraint=eastwest;" vertex="1" parent="7U2r5Oz5NG4RY_fJrtAZ-0">
          <mxGeometry y="26" width="160" height="26" as="geometry" />
        </mxCell>
        <mxCell id="7U2r5Oz5NG4RY_fJrtAZ-1" value="- name : String" style="text;strokeColor=none;fillColor=none;align=left;verticalAlign=top;spacingLeft=4;spacingRight=4;overflow=hidden;rotatable=0;points=[[0,0.5],[1,0.5]];portConstraint=eastwest;" vertex="1" parent="7U2r5Oz5NG4RY_fJrtAZ-0">
          <mxGeometry y="52" width="160" height="26" as="geometry" />
        </mxCell>
        <mxCell id="7U2r5Oz5NG4RY_fJrtAZ-2" value="" style="line;strokeWidth=1;fillColor=none;align=left;verticalAlign=middle;spacingTop=-1;spacingLeft=3;spacingRight=3;rotatable=0;labelPosition=right;points=[];portConstraint=eastwest;" vertex="1" parent="7U2r5Oz5NG4RY_fJrtAZ-0">
          <mxGeometry y="78" width="160" height="8" as="geometry" />
        </mxCell>
        <mxCell id="7U2r5Oz5NG4RY_fJrtAZ-3" value=" " style="text;strokeColor=none;fillColor=none;align=left;verticalAlign=top;spacingLeft=4;spacingRight=4;overflow=hidden;rotatable=0;points=[[0,0.5],[1,0.5]];portConstraint=eastwest;" vertex="1" parent="7U2r5Oz5NG4RY_fJrtAZ-0">
          <mxGeometry y="86" width="160" height="26" as="geometry" />
        </mxCell>
        <mxCell id="7U2r5Oz5NG4RY_fJrtAZ-5" value="Flight" style="swimlane;fontStyle=0;align=center;verticalAlign=top;childLayout=stackLayout;horizontal=1;startSize=26;horizontalStack=0;resizeParent=1;resizeParentMax=0;resizeLast=0;collapsible=1;marginBottom=0;" vertex="1" parent="WIyWlLk6GJQsqaUBKTNV-1">
          <mxGeometry x="290" y="310" width="160" height="190" as="geometry" />
        </mxCell>
        <mxCell id="7U2r5Oz5NG4RY_fJrtAZ-12" value="- ID : String" style="text;strokeColor=none;fillColor=none;align=left;verticalAlign=top;spacingLeft=4;spacingRight=4;overflow=hidden;rotatable=0;points=[[0,0.5],[1,0.5]];portConstraint=eastwest;" vertex="1" parent="7U2r5Oz5NG4RY_fJrtAZ-5">
          <mxGeometry y="26" width="160" height="26" as="geometry" />
        </mxCell>
        <mxCell id="7U2r5Oz5NG4RY_fJrtAZ-11" value="- departureAirport" style="text;strokeColor=none;fillColor=none;align=left;verticalAlign=top;spacingLeft=4;spacingRight=4;overflow=hidden;rotatable=0;points=[[0,0.5],[1,0.5]];portConstraint=eastwest;" vertex="1" parent="7U2r5Oz5NG4RY_fJrtAZ-5">
          <mxGeometry y="52" width="160" height="26" as="geometry" />
        </mxCell>
        <mxCell id="7U2r5Oz5NG4RY_fJrtAZ-10" value="- arrivalAirport" style="text;strokeColor=none;fillColor=none;align=left;verticalAlign=top;spacingLeft=4;spacingRight=4;overflow=hidden;rotatable=0;points=[[0,0.5],[1,0.5]];portConstraint=eastwest;" vertex="1" parent="7U2r5Oz5NG4RY_fJrtAZ-5">
          <mxGeometry y="78" width="160" height="26" as="geometry" />
        </mxCell>
        <mxCell id="7U2r5Oz5NG4RY_fJrtAZ-9" value="- departureTime" style="text;strokeColor=none;fillColor=none;align=left;verticalAlign=top;spacingLeft=4;spacingRight=4;overflow=hidden;rotatable=0;points=[[0,0.5],[1,0.5]];portConstraint=eastwest;" vertex="1" parent="7U2r5Oz5NG4RY_fJrtAZ-5">
          <mxGeometry y="104" width="160" height="26" as="geometry" />
        </mxCell>
        <mxCell id="7U2r5Oz5NG4RY_fJrtAZ-6" value="- arrivalTime" style="text;strokeColor=none;fillColor=none;align=left;verticalAlign=top;spacingLeft=4;spacingRight=4;overflow=hidden;rotatable=0;points=[[0,0.5],[1,0.5]];portConstraint=eastwest;" vertex="1" parent="7U2r5Oz5NG4RY_fJrtAZ-5">
          <mxGeometry y="130" width="160" height="26" as="geometry" />
        </mxCell>
        <mxCell id="7U2r5Oz5NG4RY_fJrtAZ-7" value="" style="line;strokeWidth=1;fillColor=none;align=left;verticalAlign=middle;spacingTop=-1;spacingLeft=3;spacingRight=3;rotatable=0;labelPosition=right;points=[];portConstraint=eastwest;" vertex="1" parent="7U2r5Oz5NG4RY_fJrtAZ-5">
          <mxGeometry y="156" width="160" height="8" as="geometry" />
        </mxCell>
        <mxCell id="7U2r5Oz5NG4RY_fJrtAZ-8" value=" " style="text;strokeColor=none;fillColor=none;align=left;verticalAlign=top;spacingLeft=4;spacingRight=4;overflow=hidden;rotatable=0;points=[[0,0.5],[1,0.5]];portConstraint=eastwest;" vertex="1" parent="7U2r5Oz5NG4RY_fJrtAZ-5">
          <mxGeometry y="164" width="160" height="26" as="geometry" />
        </mxCell>
        <mxCell id="7U2r5Oz5NG4RY_fJrtAZ-13" value="Aircrafts" style="swimlane;fontStyle=0;align=center;verticalAlign=top;childLayout=stackLayout;horizontal=1;startSize=26;horizontalStack=0;resizeParent=1;resizeParentMax=0;resizeLast=0;collapsible=1;marginBottom=0;" vertex="1" parent="WIyWlLk6GJQsqaUBKTNV-1">
          <mxGeometry x="560" y="90" width="160" height="112" as="geometry" />
        </mxCell>
        <mxCell id="7U2r5Oz5NG4RY_fJrtAZ-34" value="- type : string" style="text;strokeColor=none;fillColor=none;align=left;verticalAlign=top;spacingLeft=4;spacingRight=4;overflow=hidden;rotatable=0;points=[[0,0.5],[1,0.5]];portConstraint=eastwest;" vertex="1" parent="7U2r5Oz5NG4RY_fJrtAZ-13">
          <mxGeometry y="26" width="160" height="26" as="geometry" />
        </mxCell>
        <mxCell id="7U2r5Oz5NG4RY_fJrtAZ-14" value="- isWorking : bool" style="text;strokeColor=none;fillColor=none;align=left;verticalAlign=top;spacingLeft=4;spacingRight=4;overflow=hidden;rotatable=0;points=[[0,0.5],[1,0.5]];portConstraint=eastwest;" vertex="1" parent="7U2r5Oz5NG4RY_fJrtAZ-13">
          <mxGeometry y="52" width="160" height="26" as="geometry" />
        </mxCell>
        <mxCell id="7U2r5Oz5NG4RY_fJrtAZ-15" value="" style="line;strokeWidth=1;fillColor=none;align=left;verticalAlign=middle;spacingTop=-1;spacingLeft=3;spacingRight=3;rotatable=0;labelPosition=right;points=[];portConstraint=eastwest;" vertex="1" parent="7U2r5Oz5NG4RY_fJrtAZ-13">
          <mxGeometry y="78" width="160" height="8" as="geometry" />
        </mxCell>
        <mxCell id="7U2r5Oz5NG4RY_fJrtAZ-33" value=" " style="text;strokeColor=none;fillColor=none;align=left;verticalAlign=top;spacingLeft=4;spacingRight=4;overflow=hidden;rotatable=0;points=[[0,0.5],[1,0.5]];portConstraint=eastwest;" vertex="1" parent="7U2r5Oz5NG4RY_fJrtAZ-13">
          <mxGeometry y="86" width="160" height="26" as="geometry" />
        </mxCell>
        <mxCell id="7U2r5Oz5NG4RY_fJrtAZ-18" value="Pilot" style="swimlane;fontStyle=0;align=center;verticalAlign=top;childLayout=stackLayout;horizontal=1;startSize=26;horizontalStack=0;resizeParent=1;resizeParentMax=0;resizeLast=0;collapsible=1;marginBottom=0;" vertex="1" parent="WIyWlLk6GJQsqaUBKTNV-1">
          <mxGeometry x="450" y="560" width="160" height="86" as="geometry" />
        </mxCell>
        <mxCell id="7U2r5Oz5NG4RY_fJrtAZ-19" value="- experience : int" style="text;strokeColor=none;fillColor=none;align=left;verticalAlign=top;spacingLeft=4;spacingRight=4;overflow=hidden;rotatable=0;points=[[0,0.5],[1,0.5]];portConstraint=eastwest;" vertex="1" parent="7U2r5Oz5NG4RY_fJrtAZ-18">
          <mxGeometry y="26" width="160" height="26" as="geometry" />
        </mxCell>
        <mxCell id="7U2r5Oz5NG4RY_fJrtAZ-20" value="" style="line;strokeWidth=1;fillColor=none;align=left;verticalAlign=middle;spacingTop=-1;spacingLeft=3;spacingRight=3;rotatable=0;labelPosition=right;points=[];portConstraint=eastwest;" vertex="1" parent="7U2r5Oz5NG4RY_fJrtAZ-18">
          <mxGeometry y="52" width="160" height="8" as="geometry" />
        </mxCell>
        <mxCell id="7U2r5Oz5NG4RY_fJrtAZ-21" value=" " style="text;strokeColor=none;fillColor=none;align=left;verticalAlign=top;spacingLeft=4;spacingRight=4;overflow=hidden;rotatable=0;points=[[0,0.5],[1,0.5]];portConstraint=eastwest;" vertex="1" parent="7U2r5Oz5NG4RY_fJrtAZ-18">
          <mxGeometry y="60" width="160" height="26" as="geometry" />
        </mxCell>
        <mxCell id="7U2r5Oz5NG4RY_fJrtAZ-22" value="CoPilot" style="swimlane;fontStyle=0;align=center;verticalAlign=top;childLayout=stackLayout;horizontal=1;startSize=26;horizontalStack=0;resizeParent=1;resizeParentMax=0;resizeLast=0;collapsible=1;marginBottom=0;" vertex="1" parent="WIyWlLk6GJQsqaUBKTNV-1">
          <mxGeometry x="640" y="560" width="160" height="86" as="geometry" />
        </mxCell>
        <mxCell id="7U2r5Oz5NG4RY_fJrtAZ-32" value="- experience : int" style="text;strokeColor=none;fillColor=none;align=left;verticalAlign=top;spacingLeft=4;spacingRight=4;overflow=hidden;rotatable=0;points=[[0,0.5],[1,0.5]];portConstraint=eastwest;" vertex="1" parent="7U2r5Oz5NG4RY_fJrtAZ-22">
          <mxGeometry y="26" width="160" height="26" as="geometry" />
        </mxCell>
        <mxCell id="7U2r5Oz5NG4RY_fJrtAZ-24" value="" style="line;strokeWidth=1;fillColor=none;align=left;verticalAlign=middle;spacingTop=-1;spacingLeft=3;spacingRight=3;rotatable=0;labelPosition=right;points=[];portConstraint=eastwest;" vertex="1" parent="7U2r5Oz5NG4RY_fJrtAZ-22">
          <mxGeometry y="52" width="160" height="8" as="geometry" />
        </mxCell>
        <mxCell id="7U2r5Oz5NG4RY_fJrtAZ-25" value=" " style="text;strokeColor=none;fillColor=none;align=left;verticalAlign=top;spacingLeft=4;spacingRight=4;overflow=hidden;rotatable=0;points=[[0,0.5],[1,0.5]];portConstraint=eastwest;" vertex="1" parent="7U2r5Oz5NG4RY_fJrtAZ-22">
          <mxGeometry y="60" width="160" height="26" as="geometry" />
        </mxCell>
        <mxCell id="7U2r5Oz5NG4RY_fJrtAZ-26" value="Airport" style="swimlane;fontStyle=0;align=center;verticalAlign=top;childLayout=stackLayout;horizontal=1;startSize=26;horizontalStack=0;resizeParent=1;resizeParentMax=0;resizeLast=0;collapsible=1;marginBottom=0;" vertex="1" parent="WIyWlLk6GJQsqaUBKTNV-1">
          <mxGeometry x="20" y="340" width="160" height="112" as="geometry" />
        </mxCell>
        <mxCell id="7U2r5Oz5NG4RY_fJrtAZ-30" value="- ID : String" style="text;strokeColor=none;fillColor=none;align=left;verticalAlign=top;spacingLeft=4;spacingRight=4;overflow=hidden;rotatable=0;points=[[0,0.5],[1,0.5]];portConstraint=eastwest;" vertex="1" parent="7U2r5Oz5NG4RY_fJrtAZ-26">
          <mxGeometry y="26" width="160" height="26" as="geometry" />
        </mxCell>
        <mxCell id="7U2r5Oz5NG4RY_fJrtAZ-27" value="- name : String" style="text;strokeColor=none;fillColor=none;align=left;verticalAlign=top;spacingLeft=4;spacingRight=4;overflow=hidden;rotatable=0;points=[[0,0.5],[1,0.5]];portConstraint=eastwest;" vertex="1" parent="7U2r5Oz5NG4RY_fJrtAZ-26">
          <mxGeometry y="52" width="160" height="26" as="geometry" />
        </mxCell>
        <mxCell id="7U2r5Oz5NG4RY_fJrtAZ-28" value="" style="line;strokeWidth=1;fillColor=none;align=left;verticalAlign=middle;spacingTop=-1;spacingLeft=3;spacingRight=3;rotatable=0;labelPosition=right;points=[];portConstraint=eastwest;" vertex="1" parent="7U2r5Oz5NG4RY_fJrtAZ-26">
          <mxGeometry y="78" width="160" height="8" as="geometry" />
        </mxCell>
        <mxCell id="7U2r5Oz5NG4RY_fJrtAZ-29" value=" " style="text;strokeColor=none;fillColor=none;align=left;verticalAlign=top;spacingLeft=4;spacingRight=4;overflow=hidden;rotatable=0;points=[[0,0.5],[1,0.5]];portConstraint=eastwest;" vertex="1" parent="7U2r5Oz5NG4RY_fJrtAZ-26">
          <mxGeometry y="86" width="160" height="26" as="geometry" />
        </mxCell>
        <mxCell id="7U2r5Oz5NG4RY_fJrtAZ-36" value="Pilots" style="swimlane;fontStyle=0;align=center;verticalAlign=top;childLayout=stackLayout;horizontal=1;startSize=26;horizontalStack=0;resizeParent=1;resizeParentMax=0;resizeLast=0;collapsible=1;marginBottom=0;" vertex="1" parent="WIyWlLk6GJQsqaUBKTNV-1">
          <mxGeometry x="540" y="330" width="160" height="112" as="geometry" />
        </mxCell>
        <mxCell id="7U2r5Oz5NG4RY_fJrtAZ-37" value="- ID : String" style="text;strokeColor=none;fillColor=none;align=left;verticalAlign=top;spacingLeft=4;spacingRight=4;overflow=hidden;rotatable=0;points=[[0,0.5],[1,0.5]];portConstraint=eastwest;" vertex="1" parent="7U2r5Oz5NG4RY_fJrtAZ-36">
          <mxGeometry y="26" width="160" height="26" as="geometry" />
        </mxCell>
        <mxCell id="7U2r5Oz5NG4RY_fJrtAZ-38" value="- name : String" style="text;strokeColor=none;fillColor=none;align=left;verticalAlign=top;spacingLeft=4;spacingRight=4;overflow=hidden;rotatable=0;points=[[0,0.5],[1,0.5]];portConstraint=eastwest;" vertex="1" parent="7U2r5Oz5NG4RY_fJrtAZ-36">
          <mxGeometry y="52" width="160" height="26" as="geometry" />
        </mxCell>
        <mxCell id="7U2r5Oz5NG4RY_fJrtAZ-39" value="" style="line;strokeWidth=1;fillColor=none;align=left;verticalAlign=middle;spacingTop=-1;spacingLeft=3;spacingRight=3;rotatable=0;labelPosition=right;points=[];portConstraint=eastwest;" vertex="1" parent="7U2r5Oz5NG4RY_fJrtAZ-36">
          <mxGeometry y="78" width="160" height="8" as="geometry" />
        </mxCell>
        <mxCell id="7U2r5Oz5NG4RY_fJrtAZ-40" value=" " style="text;strokeColor=none;fillColor=none;align=left;verticalAlign=top;spacingLeft=4;spacingRight=4;overflow=hidden;rotatable=0;points=[[0,0.5],[1,0.5]];portConstraint=eastwest;" vertex="1" parent="7U2r5Oz5NG4RY_fJrtAZ-36">
          <mxGeometry y="86" width="160" height="26" as="geometry" />
        </mxCell>
        <mxCell id="7U2r5Oz5NG4RY_fJrtAZ-44" value="" style="endArrow=none;html=1;rounded=0;exitX=0.492;exitY=1.021;exitDx=0;exitDy=0;exitPerimeter=0;labelPosition=right;verticalLabelPosition=bottom;align=left;verticalAlign=bottom;textDirection=ltr;" edge="1" parent="WIyWlLk6GJQsqaUBKTNV-1" source="7U2r5Oz5NG4RY_fJrtAZ-3" target="7U2r5Oz5NG4RY_fJrtAZ-5">
          <mxGeometry relative="1" as="geometry">
            <mxPoint x="340" y="260" as="sourcePoint" />
            <mxPoint x="500" y="260" as="targetPoint" />
          </mxGeometry>
        </mxCell>
        <mxCell id="7U2r5Oz5NG4RY_fJrtAZ-45" value="1" style="edgeLabel;resizable=0;html=1;align=left;verticalAlign=middle;" connectable="0" vertex="1" parent="7U2r5Oz5NG4RY_fJrtAZ-44">
          <mxGeometry x="-1" relative="1" as="geometry">
            <mxPoint y="14" as="offset" />
          </mxGeometry>
        </mxCell>
        <mxCell id="7U2r5Oz5NG4RY_fJrtAZ-46" value="*" style="edgeLabel;resizable=0;html=1;align=left;verticalAlign=bottom;labelPosition=left;verticalLabelPosition=top;textDirection=ltr;" connectable="0" vertex="1" parent="7U2r5Oz5NG4RY_fJrtAZ-44">
          <mxGeometry x="1" relative="1" as="geometry">
            <mxPoint x="1" as="offset" />
          </mxGeometry>
        </mxCell>
        <mxCell id="7U2r5Oz5NG4RY_fJrtAZ-47" value="" style="endArrow=none;html=1;edgeStyle=isometricEdgeStyle;rounded=0;verticalAlign=bottom;entryX=0;entryY=0.5;entryDx=0;entryDy=0;exitX=0.997;exitY=0.314;exitDx=0;exitDy=0;exitPerimeter=0;strokeColor=default;elbow=vertical;" edge="1" parent="WIyWlLk6GJQsqaUBKTNV-1" source="7U2r5Oz5NG4RY_fJrtAZ-30" target="7U2r5Oz5NG4RY_fJrtAZ-11">
          <mxGeometry relative="1" as="geometry">
            <mxPoint x="280" y="260" as="sourcePoint" />
            <mxPoint x="440" y="260" as="targetPoint" />
            <Array as="points">
              <mxPoint x="230" y="350" />
            </Array>
          </mxGeometry>
        </mxCell>
        <mxCell id="7U2r5Oz5NG4RY_fJrtAZ-48" value="1" style="edgeLabel;resizable=0;html=1;align=left;verticalAlign=bottom;labelPosition=right;verticalLabelPosition=top;" connectable="0" vertex="1" parent="7U2r5Oz5NG4RY_fJrtAZ-47">
          <mxGeometry x="-1" relative="1" as="geometry">
            <mxPoint y="-14" as="offset" />
          </mxGeometry>
        </mxCell>
        <mxCell id="7U2r5Oz5NG4RY_fJrtAZ-49" value="*" style="edgeLabel;resizable=0;html=1;align=right;verticalAlign=middle;labelPosition=left;verticalLabelPosition=middle;" connectable="0" vertex="1" parent="7U2r5Oz5NG4RY_fJrtAZ-47">
          <mxGeometry x="1" relative="1" as="geometry">
            <mxPoint y="-15" as="offset" />
          </mxGeometry>
        </mxCell>
        <mxCell id="7U2r5Oz5NG4RY_fJrtAZ-53" value="" style="endArrow=none;html=1;edgeStyle=isometricEdgeStyle;rounded=0;verticalAlign=bottom;elbow=vertical;exitX=1.003;exitY=-0.113;exitDx=0;exitDy=0;exitPerimeter=0;entryX=0.002;entryY=1.081;entryDx=0;entryDy=0;entryPerimeter=0;" edge="1" parent="WIyWlLk6GJQsqaUBKTNV-1" source="7U2r5Oz5NG4RY_fJrtAZ-29" target="7U2r5Oz5NG4RY_fJrtAZ-10">
          <mxGeometry relative="1" as="geometry">
            <mxPoint x="230" y="410" as="sourcePoint" />
            <mxPoint x="250" y="410" as="targetPoint" />
            <Array as="points">
              <mxPoint x="250" y="440" />
            </Array>
          </mxGeometry>
        </mxCell>
        <mxCell id="7U2r5Oz5NG4RY_fJrtAZ-54" value="1" style="edgeLabel;resizable=0;html=1;align=left;verticalAlign=bottom;" connectable="0" vertex="1" parent="7U2r5Oz5NG4RY_fJrtAZ-53">
          <mxGeometry x="-1" relative="1" as="geometry" />
        </mxCell>
        <mxCell id="7U2r5Oz5NG4RY_fJrtAZ-55" value="*" style="edgeLabel;resizable=0;html=1;align=right;verticalAlign=bottom;horizontal=1;labelPosition=left;verticalLabelPosition=top;textDirection=ltr;" connectable="0" vertex="1" parent="7U2r5Oz5NG4RY_fJrtAZ-53">
          <mxGeometry x="1" relative="1" as="geometry" />
        </mxCell>
        <mxCell id="7U2r5Oz5NG4RY_fJrtAZ-60" value="" style="endArrow=none;html=1;rounded=0;exitX=0.996;exitY=0.285;exitDx=0;exitDy=0;exitPerimeter=0;labelPosition=right;verticalLabelPosition=bottom;align=left;verticalAlign=bottom;textDirection=ltr;entryX=-0.006;entryY=0.267;entryDx=0;entryDy=0;entryPerimeter=0;strokeWidth=1;" edge="1" parent="WIyWlLk6GJQsqaUBKTNV-1" source="7U2r5Oz5NG4RY_fJrtAZ-1" target="7U2r5Oz5NG4RY_fJrtAZ-14">
          <mxGeometry relative="1" as="geometry">
            <mxPoint x="378.72" y="212.54600000000005" as="sourcePoint" />
            <mxPoint x="379.3993697333716" y="320" as="targetPoint" />
          </mxGeometry>
        </mxCell>
        <mxCell id="7U2r5Oz5NG4RY_fJrtAZ-61" value="1" style="edgeLabel;resizable=0;html=1;align=left;verticalAlign=bottom;labelPosition=center;verticalLabelPosition=top;" connectable="0" vertex="1" parent="7U2r5Oz5NG4RY_fJrtAZ-60">
          <mxGeometry x="-1" relative="1" as="geometry">
            <mxPoint y="1" as="offset" />
          </mxGeometry>
        </mxCell>
        <mxCell id="7U2r5Oz5NG4RY_fJrtAZ-62" value="*" style="edgeLabel;resizable=0;html=1;align=right;verticalAlign=bottom;labelPosition=left;verticalLabelPosition=top;textDirection=ltr;" connectable="0" vertex="1" parent="7U2r5Oz5NG4RY_fJrtAZ-60">
          <mxGeometry x="1" relative="1" as="geometry">
            <mxPoint x="1" as="offset" />
          </mxGeometry>
        </mxCell>
        <mxCell id="7U2r5Oz5NG4RY_fJrtAZ-66" value="" style="endArrow=none;html=1;rounded=0;exitX=0.5;exitY=1;exitDx=0;exitDy=0;labelPosition=right;verticalLabelPosition=bottom;align=left;verticalAlign=bottom;textDirection=ltr;entryX=0.5;entryY=0;entryDx=0;entryDy=0;" edge="1" parent="WIyWlLk6GJQsqaUBKTNV-1" source="7U2r5Oz5NG4RY_fJrtAZ-13" target="7U2r5Oz5NG4RY_fJrtAZ-36">
          <mxGeometry relative="1" as="geometry">
            <mxPoint x="649.9999999999999" y="209.99599999999998" as="sourcePoint" />
            <mxPoint x="650.6793697333715" y="317.45" as="targetPoint" />
          </mxGeometry>
        </mxCell>
        <mxCell id="7U2r5Oz5NG4RY_fJrtAZ-67" value="*" style="edgeLabel;resizable=0;html=1;align=left;verticalAlign=middle;" connectable="0" vertex="1" parent="7U2r5Oz5NG4RY_fJrtAZ-66">
          <mxGeometry x="-1" relative="1" as="geometry">
            <mxPoint y="14" as="offset" />
          </mxGeometry>
        </mxCell>
        <mxCell id="7U2r5Oz5NG4RY_fJrtAZ-68" value="1..*" style="edgeLabel;resizable=0;html=1;align=left;verticalAlign=bottom;labelPosition=left;verticalLabelPosition=top;textDirection=ltr;" connectable="0" vertex="1" parent="7U2r5Oz5NG4RY_fJrtAZ-66">
          <mxGeometry x="1" relative="1" as="geometry">
            <mxPoint x="1" as="offset" />
          </mxGeometry>
        </mxCell>
        <mxCell id="7U2r5Oz5NG4RY_fJrtAZ-70" value="Extends" style="endArrow=block;endSize=16;endFill=0;html=1;rounded=0;strokeColor=default;strokeWidth=1;verticalAlign=bottom;elbow=vertical;edgeStyle=elbowEdgeStyle;entryX=0.508;entryY=1.026;entryDx=0;entryDy=0;entryPerimeter=0;exitX=0.5;exitY=0;exitDx=0;exitDy=0;" edge="1" parent="WIyWlLk6GJQsqaUBKTNV-1" source="7U2r5Oz5NG4RY_fJrtAZ-18" target="7U2r5Oz5NG4RY_fJrtAZ-40">
          <mxGeometry width="160" relative="1" as="geometry">
            <mxPoint x="440" y="490" as="sourcePoint" />
            <mxPoint x="600" y="490" as="targetPoint" />
          </mxGeometry>
        </mxCell>
        <mxCell id="7U2r5Oz5NG4RY_fJrtAZ-72" value="Extends" style="endArrow=block;endSize=16;endFill=0;html=1;rounded=0;strokeColor=default;strokeWidth=1;verticalAlign=bottom;elbow=vertical;edgeStyle=elbowEdgeStyle;entryX=0.508;entryY=1.026;entryDx=0;entryDy=0;entryPerimeter=0;" edge="1" parent="WIyWlLk6GJQsqaUBKTNV-1" source="7U2r5Oz5NG4RY_fJrtAZ-22" target="7U2r5Oz5NG4RY_fJrtAZ-40">
          <mxGeometry width="160" relative="1" as="geometry">
            <mxPoint x="440" y="490" as="sourcePoint" />
            <mxPoint x="600" y="490" as="targetPoint" />
          </mxGeometry>
        </mxCell>
        <mxCell id="7U2r5Oz5NG4RY_fJrtAZ-73" value="" style="endArrow=none;html=1;rounded=0;exitX=1;exitY=0.5;exitDx=0;exitDy=0;labelPosition=right;verticalLabelPosition=bottom;align=left;verticalAlign=bottom;textDirection=ltr;entryX=0.005;entryY=0.743;entryDx=0;entryDy=0;entryPerimeter=0;strokeWidth=1;" edge="1" parent="WIyWlLk6GJQsqaUBKTNV-1" source="7U2r5Oz5NG4RY_fJrtAZ-10" target="7U2r5Oz5NG4RY_fJrtAZ-38">
          <mxGeometry relative="1" as="geometry">
            <mxPoint x="459.3600000000001" y="159.41000000000008" as="sourcePoint" />
            <mxPoint x="569.04" y="158.94200000000012" as="targetPoint" />
          </mxGeometry>
        </mxCell>
        <mxCell id="7U2r5Oz5NG4RY_fJrtAZ-74" value="1" style="edgeLabel;resizable=0;html=1;align=left;verticalAlign=middle;" connectable="0" vertex="1" parent="7U2r5Oz5NG4RY_fJrtAZ-73">
          <mxGeometry x="-1" relative="1" as="geometry">
            <mxPoint y="-11" as="offset" />
          </mxGeometry>
        </mxCell>
        <mxCell id="7U2r5Oz5NG4RY_fJrtAZ-75" value="2" style="edgeLabel;resizable=0;html=1;align=right;verticalAlign=bottom;labelPosition=left;verticalLabelPosition=top;textDirection=ltr;" connectable="0" vertex="1" parent="7U2r5Oz5NG4RY_fJrtAZ-73">
          <mxGeometry x="1" relative="1" as="geometry">
            <mxPoint x="-1" as="offset" />
          </mxGeometry>
        </mxCell>
      </root>
    </mxGraphModel>
  </diagram>
</mxfile>
